<?xml version="1.0" encoding="UTF-8"?>
<!DOCTYPE svg PUBLIC "-//W3C//DTD SVG 1.1//EN" "http://www.w3.org/Graphics/SVG/1.1/DTD/svg11.dtd">
<!-- Creator: CorelDRAW 2021 (64-Bit) -->
<svg xmlns="http://www.w3.org/2000/svg" xml:space="preserve" width="21.706mm" height="6.3mm" version="1.1" style="shape-rendering:geometricPrecision; text-rendering:geometricPrecision; image-rendering:optimizeQuality; fill-rule:evenodd; clip-rule:evenodd"
viewBox="0 0 2170.6 630"
 xmlns:xlink="http://www.w3.org/1999/xlink"
 xmlns:xodm="http://www.corel.com/coreldraw/odm/2003">
 <defs>
  <style type="text/css">
   <![CDATA[
    .fil1 {fill:#B25534;fill-rule:nonzero}
    .fil0 {fill:#F1E9D4;fill-rule:nonzero}
   ]]>
  </style>
 </defs>
 <g id="Layer_x0020_1">
  <metadata id="CorelCorpID_0Corel-Layer"/>
  <g id="_2107566929328">
   <path class="fil0" d="M784.36 273.53l-85.37 -94.48c44.39,-6.45 72.85,-36.81 72.85,-79.31 0,-48.18 -36.42,-80.44 -91.06,-80.44l-121.8 0 0 254.23 51.6 0 0 -93.34 26.94 0 83.86 93.34 62.98 0zm-173.78 -140.01l0 -67.54 70.2 0c23.9,0 39.84,13.66 39.84,33.76 0,20.12 -15.94,33.78 -39.84,33.78l-70.2 0zm336.18 -119.9c-75.13,0 -133.94,59.19 -133.94,133.18 0,73.99 58.81,132.42 133.94,132.42 75.13,0 133.94,-58.43 133.94,-132.42 0,-73.99 -58.81,-133.18 -133.94,-133.18zm0 217.03c-45.91,0 -81.96,-35.29 -81.96,-83.85 0,-48.57 36.05,-84.62 81.96,-84.62 45.91,0 81.96,36.05 81.96,84.62 0,48.56 -36.05,83.85 -81.96,83.85zm282.3 -217.03c-59.57,0 -96.76,31.86 -96.76,77.4 0,49.7 36.3,67.06 66.79,72.85l53.88 10.25c22.81,4.33 29.59,13.28 29.59,27.69 0,18.22 -15.55,32.26 -45.15,32.26 -28.84,0 -50.09,-12.53 -56.92,-41.36l-54.26 11c6.45,50.85 53.13,75.51 106.25,75.51 60.33,0 100.93,-30.73 100.93,-80.06 0,-39.46 -25.35,-64.51 -66.78,-72.85l-54.64 -11.01c-19.69,-3.96 -25.43,-12.9 -25.43,-25.8 0,-17.07 15.56,-31.49 41.36,-31.49 25.43,0 46.29,15.55 50.09,39.46l51.6 -10.63c-9.86,-45.15 -48.95,-73.22 -100.55,-73.22zm404.86 259.91l-110.04 -254.23 -48.18 0 -110.04 254.23 55.78 0 22.38 -54.26 112.32 0 22 54.26 55.78 0zm-97.13 -100.93l-73.99 0 37.18 -90.69 36.81 90.69z"/>
   <path class="fil0" d="M722.14 496.07c15.18,-2.66 37.19,-20.11 37.19,-52.37 0,-42.49 -29.25,-70.57 -75.13,-70.57l-125.21 0 0 254.22 125.59 0c56.53,0 81.96,-29.22 81.96,-70.58 0,-36.04 -23.53,-56.53 -44.4,-59.19l0 -1.51zm-111.55 -78.93l67.92 0c16.69,0 30.73,11.77 30.73,29.6 0,19.73 -13.69,32.63 -34.15,32.63l-64.5 0 0 -62.23zm0 166.2l0 -62.99 70.2 0c19.35,0 33.01,12.14 33.01,31.49 0,18.98 -11.8,31.5 -34.91,31.5l-68.3 0zm453.43 44.01l-110.04 -254.22 -48.19 0 -110.04 254.22 55.78 0 22.39 -54.26 112.31 0 22.01 54.26 55.78 0zm-97.14 -100.93l-73.99 0 37.18 -90.68 36.81 90.68zm362.36 100.93l-85.37 -94.48c44.39,-6.45 72.85,-36.8 72.85,-79.3 0,-48.19 -36.47,-80.44 -91.06,-80.44l-121.8 0 0 254.22 51.6 0 0 -93.34 26.94 0 83.86 93.34 62.98 0zm-173.78 -140.01l0 -67.54 70.2 0c23.9,0 39.84,13.66 39.84,33.77 0,20.11 -15.98,33.77 -39.84,33.77l-70.2 0zm442.81 140.01l-85.38 -94.48c44.4,-6.45 72.86,-36.8 72.86,-79.3 0,-48.19 -36.48,-80.44 -91.07,-80.44l-121.8 0 0 254.22 51.61 0 0 -93.34 26.94 0 83.85 93.34 62.99 0zm-173.78 -140.01l0 -67.54 70.19 0c23.91,0 39.84,13.66 39.84,33.77 0,20.11 -15.98,33.77 -39.84,33.77l-70.19 0zm336.17 -119.9c-75.12,0 -133.93,59.19 -133.93,133.18 0,73.99 58.81,132.42 133.93,132.42 75.13,0 133.95,-58.43 133.95,-132.42 0,-73.99 -58.82,-133.18 -133.95,-133.18zm0 217.03c-45.91,0 -81.95,-35.28 -81.95,-83.85 0,-48.57 36.04,-84.61 81.95,-84.61 45.91,0 81.96,36.04 81.96,84.61 0,48.57 -36.05,83.85 -81.96,83.85zm282.3 -217.03c-59.57,0 -96.75,31.87 -96.75,77.4 0,49.71 36.29,67.06 66.78,72.85l53.88 10.25c22.81,4.33 29.6,13.28 29.6,27.7 0,18.21 -15.56,32.25 -45.16,32.25 -28.83,0 -50.08,-12.52 -56.91,-41.36l-54.26 11.01c6.45,50.84 53.12,75.5 106.24,75.5 60.33,0 100.93,-30.73 100.93,-80.06 0,-39.46 -25.39,-64.52 -66.78,-72.85l-54.64 -11c-19.64,-3.96 -25.42,-12.91 -25.42,-25.81 0,-17.07 15.56,-31.49 41.36,-31.49 25.42,0 46.29,15.56 50.08,39.46l51.6 -10.62c-9.86,-45.16 -48.94,-73.23 -100.55,-73.23z"/>
   <path class="fil1" d="M184.7 525.07c17.4,-18.08 31.72,-39.17 42.11,-62.4 12.14,-27.13 18.89,-57.29 18.89,-89.14 0,-60.34 -24.46,-114.97 -64,-154.51 -35.69,-35.7 -83.62,-59.11 -136.9,-63.37l0.01 296.62 0.06 0c0,38.6 15.65,73.55 40.95,98.84 25.29,25.3 60.24,40.94 98.84,40.94 8.38,0 16.58,-0.74 24.56,-2.15 -16.97,-10.44 -32.61,-22.82 -46.62,-36.83 -45.95,-45.95 -74.37,-109.43 -74.37,-179.54l35.38 0c0,58.85 23.26,112.26 61.09,151.54zm-39.41 -466.48c21.75,0 39.37,17.62 39.37,39.36 0,-21.74 17.62,-39.36 39.37,-39.36 -21.75,0 -39.37,-17.63 -39.37,-39.37 0,21.74 -17.62,39.37 -39.37,39.37zm113.73 418.46c-11.86,26.51 -28.14,50.61 -47.9,71.38 13.24,9.94 27.66,18.41 43,25.17 10.78,-6.18 20.65,-13.76 29.38,-22.49 25.3,-25.29 40.94,-60.24 40.94,-98.84l0.07 0 0 -237.18 -98.92 0c34.73,43.43 55.5,98.51 55.5,158.44 0,36.78 -7.89,71.82 -22.07,103.52zm-231.84 -357.35c30.34,0 59.42,5.31 86.38,15.05 9.92,-4.43 20.24,-7.95 30.87,-10.45 12.97,-3.05 26.44,-4.67 40.23,-4.67 27.33,0 53.26,6.31 76.39,17.55 21.4,10.39 40.34,24.97 55.75,42.67l42.95 0 0.01 272.42 0.07 0c0,48.37 -19.61,92.16 -51.31,123.86 -3.89,3.89 -7.96,7.6 -12.2,11.11 14.77,3.15 30.1,4.81 45.81,4.81 5.98,0 11.86,-0.23 17.63,-0.67l0 35.43c-5.86,0.41 -11.74,0.63 -17.63,0.63 -30.31,0 -59.37,-5.32 -86.32,-15.06 -21.74,9.67 -45.82,15.06 -71.15,15.06 -48.37,0 -92.16,-19.61 -123.86,-51.31 -31.7,-31.7 -51.31,-75.49 -51.31,-123.86l0.07 0 0 -332.57 17.62 0zm132.87 37.45c11.02,6.78 21.49,14.37 31.3,22.7l72.94 0c-5.89,-4.09 -12.09,-7.73 -18.58,-10.88 -18.4,-8.94 -39.11,-13.95 -61.05,-13.95 -8.43,0 -16.65,0.73 -24.61,2.13z"/>
  </g>
 </g>
</svg>
