<?xml version="1.0" encoding="UTF-8"?>
<!DOCTYPE svg PUBLIC "-//W3C//DTD SVG 1.1//EN" "http://www.w3.org/Graphics/SVG/1.1/DTD/svg11.dtd">
<!-- Creator: CorelDRAW 2021 (64-Bit) -->
<svg xmlns="http://www.w3.org/2000/svg" xml:space="preserve" width="11.749mm" height="4.5mm" version="1.1" style="shape-rendering:geometricPrecision; text-rendering:geometricPrecision; image-rendering:optimizeQuality; fill-rule:evenodd; clip-rule:evenodd"
viewBox="0 0 1174.9 450"
 xmlns:xlink="http://www.w3.org/1999/xlink"
 xmlns:xodm="http://www.corel.com/coreldraw/odm/2003">
 <defs>
  <style type="text/css">
   <![CDATA[
    .fil0 {fill:#F1E9D4;fill-rule:nonzero}
   ]]>
  </style>
 </defs>
 <g id="Layer_x0020_1">
  <metadata id="CorelCorpID_0Corel-Layer"/>
  <g id="_2518269015216">
   <g>
    <path class="fil0" d="M854.38 450.01c-5.56,0 -10.56,-1.23 -15.02,-3.69 -4.46,-2.45 -7.95,-5.85 -10.49,-10.2 -2.53,-4.36 -3.8,-9.23 -3.8,-14.62 0,-5.39 1.27,-10.26 3.8,-14.61 2.54,-4.35 6.05,-7.75 10.53,-10.21 4.49,-2.46 9.5,-3.68 15.06,-3.68 4.16,0 8,0.69 11.53,2.08 3.52,1.39 6.51,3.42 8.96,6.08l-3.76 3.77c-4.38,-4.43 -9.9,-6.65 -16.58,-6.65 -4.43,0 -8.46,1.02 -12.09,3.04 -3.63,2.03 -6.47,4.81 -8.52,8.33 -2.06,3.52 -3.09,7.47 -3.09,11.85 0,4.38 1.03,8.33 3.09,11.85 2.05,3.53 4.89,6.3 8.52,8.33 3.63,2.03 7.66,3.04 12.09,3.04 6.73,0 12.26,-2.24 16.58,-6.72l3.76 3.76c-2.45,2.67 -5.45,4.71 -9,6.13 -3.55,1.41 -7.41,2.12 -11.57,2.12zm83.65 -56.53l0 56.05 -5.85 0 0 -25.87 -35.07 0 0 25.87 -5.92 0 0 -56.05 5.92 0 0 24.98 35.07 0 0 -24.98 5.85 0zm61.47 50.92l0 5.13 -39.63 0 0 -56.05 38.43 0 0 5.12 -32.51 0 0 19.94 28.99 0 0 5.04 -28.99 0 0 20.82 33.71 0zm23.44 -45.8l0 22.02 28.99 0 0 5.13 -28.99 0 0 23.78 -5.92 0 0 -56.05 38.43 0 0 5.12 -32.51 0z"/>
    <path class="fil0" d="M322.26 393.48c7.16,0 12.76,1.7 16.82,5.12 4.05,3.42 6.08,8.12 6.08,14.09 0,5.98 -2.03,10.67 -6.08,14.06 -4.06,3.39 -9.66,5.08 -16.82,5.08l-15.05 0 0 17.7 -5.93 0 0 -56.05 20.98 0zm-0.16 33.15c5.55,0 9.8,-1.22 12.73,-3.65 2.94,-2.42 4.41,-5.86 4.41,-10.29 0,-4.53 -1.47,-8.02 -4.41,-10.45 -2.93,-2.42 -7.18,-3.64 -12.73,-3.64l-14.89 0 0 28.03 14.89 0zm79.09 17.77l0 5.13 -39.64 0 0 -56.05 38.44 0 0 5.12 -32.51 0 0 19.94 28.99 0 0 5.04 -28.99 0 0 20.82 33.71 0zm55.79 5.13l-12.81 -18.02c-1.45,0.16 -2.94,0.24 -4.49,0.24l-15.05 0 0 17.78 -5.93 0 0 -56.05 20.98 0c7.16,0 12.76,1.7 16.82,5.12 4.05,3.42 6.08,8.12 6.08,14.09 0,4.38 -1.1,8.08 -3.32,11.09 -2.22,3.02 -5.38,5.19 -9.49,6.53l13.69 19.22 -6.48 0zm-17.46 -22.82c5.55,0 9.8,-1.23 12.73,-3.69 2.94,-2.45 4.41,-5.9 4.41,-10.33 0,-4.53 -1.47,-8.02 -4.41,-10.45 -2.93,-2.42 -7.18,-3.64 -12.73,-3.64l-14.89 0 0 28.11 14.89 0zm56.11 23.3c-4.16,0 -8.15,-0.67 -11.97,-2.01 -3.82,-1.33 -6.77,-3.09 -8.85,-5.28l2.32 -4.56c2.03,2.02 4.73,3.67 8.09,4.92 3.36,1.25 6.83,1.88 10.41,1.88 5.02,0 8.78,-0.92 11.29,-2.76 2.51,-1.84 3.76,-4.23 3.76,-7.17 0,-2.24 -0.68,-4.03 -2.04,-5.36 -1.36,-1.34 -3.03,-2.36 -5,-3.08 -1.98,-0.72 -4.73,-1.51 -8.25,-2.37 -4.22,-1.06 -7.58,-2.09 -10.09,-3.08 -2.51,-0.99 -4.66,-2.49 -6.45,-4.52 -1.78,-2.03 -2.68,-4.78 -2.68,-8.25 0,-2.83 0.75,-5.4 2.24,-7.73 1.5,-2.32 3.79,-4.17 6.89,-5.56 3.1,-1.39 6.94,-2.08 11.53,-2.08 3.2,0 6.34,0.44 9.41,1.32 3.07,0.88 5.72,2.09 7.97,3.64l-2.01 4.73c-2.34,-1.55 -4.85,-2.71 -7.52,-3.49 -2.67,-0.77 -5.29,-1.16 -7.85,-1.16 -4.91,0 -8.61,0.95 -11.09,2.84 -2.48,1.9 -3.72,4.34 -3.72,7.33 0,2.24 0.68,4.04 2.04,5.4 1.36,1.37 3.07,2.41 5.13,3.13 2.05,0.72 4.81,1.51 8.28,2.36 4.11,1.01 7.43,2.01 9.97,3 2.54,0.99 4.69,2.48 6.45,4.49 1.76,2 2.64,4.71 2.64,8.12 0,2.83 -0.76,5.41 -2.28,7.73 -1.53,2.32 -3.86,4.16 -7.01,5.53 -3.15,1.36 -7.02,2.04 -11.61,2.04zm61.87 0c-5.55,0 -10.58,-1.24 -15.09,-3.73 -4.51,-2.48 -8.03,-5.88 -10.57,-10.2 -2.54,-4.33 -3.8,-9.19 -3.8,-14.58 0,-5.39 1.26,-10.25 3.8,-14.57 2.54,-4.33 6.06,-7.73 10.57,-10.21 4.51,-2.48 9.54,-3.72 15.09,-3.72 5.55,0 10.56,1.23 15.02,3.68 4.45,2.45 7.96,5.86 10.53,10.21 2.56,4.35 3.84,9.22 3.84,14.61 0,5.39 -1.28,10.26 -3.84,14.61 -2.57,4.35 -6.08,7.76 -10.53,10.21 -4.46,2.46 -9.47,3.69 -15.02,3.69zm0 -5.29c4.43,0 8.44,-1 12.01,-3 3.58,-2 6.38,-4.78 8.41,-8.33 2.03,-3.55 3.04,-7.51 3.04,-11.89 0,-4.38 -1.01,-8.34 -3.04,-11.89 -2.03,-3.55 -4.83,-6.33 -8.41,-8.33 -3.57,-2 -7.58,-3 -12.01,-3 -4.43,0 -8.44,1 -12.05,3 -3.6,2 -6.43,4.78 -8.49,8.33 -2.05,3.55 -3.08,7.51 -3.08,11.89 0,4.38 1.03,8.34 3.08,11.89 2.06,3.55 4.89,6.33 8.49,8.33 3.61,2 7.62,3 12.05,3zm93.1 -51.24l0 56.05 -4.88 0 -36.03 -45.48 0 45.48 -5.93 0 0 -56.05 4.89 0 36.11 45.48 0 -45.48 5.84 0zm56.99 41.07l-31.23 0 -6.72 14.98 -6.17 0 25.63 -56.05 5.84 0 25.62 56.05 -6.24 0 -6.73 -14.98zm-2.16 -4.8l-13.45 -30.11 -13.45 30.11 26.9 0zm28 -36.27l5.93 0 0 50.92 31.39 0 0 5.13 -37.32 0 0 -56.05z"/>
   </g>
   <path class="fil0" d="M423.18 147.76l-46.18 -51.1c24.01,-3.48 39.41,-19.9 39.41,-42.89 0,-26.06 -19.71,-43.5 -49.26,-43.5l-65.87 0 0 137.49 27.91 0 0 -50.48 14.57 0 45.35 50.48 34.07 0zm-93.99 -75.72l0 -36.53 37.96 0c12.93,0 21.55,7.39 21.55,18.26 0,10.88 -8.62,18.27 -21.55,18.27l-37.96 0zm181.82 -64.85c-40.63,0 -72.44,32.02 -72.44,72.03 0,40.02 31.81,71.62 72.44,71.62 40.63,0 72.44,-31.6 72.44,-71.62 0,-40.01 -31.81,-72.03 -72.44,-72.03zm0 117.38c-24.83,0 -44.33,-19.08 -44.33,-45.35 0,-26.26 19.5,-45.76 44.33,-45.76 24.83,0 44.32,19.5 44.32,45.76 0,26.27 -19.49,45.35 -44.32,45.35zm152.68 -117.38c-32.22,0 -52.33,17.24 -52.33,41.87 0,26.88 19.63,36.27 36.12,39.4l29.14 5.54c12.33,2.34 16,7.18 16,14.98 0,9.85 -8.41,17.44 -24.42,17.44 -15.59,0 -27.08,-6.77 -30.78,-22.37l-29.35 5.95c3.49,27.5 28.74,40.84 57.47,40.84 32.62,0 54.58,-16.62 54.58,-43.3 0,-21.34 -13.71,-34.89 -36.11,-39.4l-29.56 -5.95c-10.64,-2.15 -13.75,-6.98 -13.75,-13.96 0,-9.23 8.42,-17.03 22.37,-17.03 13.75,0 25.04,8.41 27.09,21.34l27.91 -5.74c-5.33,-24.42 -26.47,-39.61 -54.38,-39.61zm218.96 140.57l-59.51 -137.49 -26.06 0 -59.51 137.49 30.16 0 12.11 -29.34 60.74 0 11.91 29.34 30.16 0zm-52.53 -54.58l-40.02 0 20.11 -49.05 19.91 49.05z"/>
   <path class="fil0" d="M389.52 268.12c8.21,-1.44 20.12,-10.87 20.12,-28.32 0,-22.98 -15.82,-38.17 -40.64,-38.17l-67.72 0 0 137.5 67.93 0c30.58,0 44.33,-15.81 44.33,-38.17 0,-19.5 -12.73,-30.58 -24.02,-32.02l0 -0.82zm-60.33 -42.68l36.74 0c9.03,0 16.62,6.36 16.62,16 0,10.68 -7.41,17.65 -18.47,17.65l-34.89 0 0 -33.65zm0 89.88l0 -34.06 37.97 0c10.46,0 17.85,6.56 17.85,17.03 0,10.26 -6.38,17.03 -18.88,17.03l-36.94 0zm245.23 23.81l-59.51 -137.5 -26.06 0 -59.51 137.5 30.16 0 12.11 -29.35 60.75 0 11.9 29.35 30.16 0zm-52.53 -54.59l-40.02 0 20.11 -49.05 19.91 49.05zm195.98 54.59l-46.17 -51.1c24.01,-3.49 39.4,-19.91 39.4,-42.89 0,-26.06 -19.72,-43.51 -49.25,-43.51l-65.88 0 0 137.5 27.91 0 0 -50.49 14.57 0 45.35 50.49 34.07 0zm-93.99 -75.73l0 -36.53 37.97 0c12.93,0 21.55,7.39 21.55,18.27 0,10.87 -8.65,18.26 -21.55,18.26l-37.97 0zm239.49 75.73l-46.17 -51.1c24.01,-3.49 39.4,-19.91 39.4,-42.89 0,-26.06 -19.73,-43.51 -49.25,-43.51l-65.88 0 0 137.5 27.91 0 0 -50.49 14.57 0 45.35 50.49 34.07 0zm-93.99 -75.73l0 -36.53 37.97 0c12.93,0 21.54,7.39 21.54,18.27 0,10.87 -8.64,18.26 -21.54,18.26l-37.97 0zm181.82 -64.85c-40.63,0 -72.44,32.02 -72.44,72.03 0,40.02 31.81,71.63 72.44,71.63 40.63,0 72.44,-31.61 72.44,-71.63 0,-40.01 -31.81,-72.03 -72.44,-72.03zm0 117.39c-24.83,0 -44.33,-19.09 -44.33,-45.36 0,-26.26 19.5,-45.76 44.33,-45.76 24.83,0 44.33,19.5 44.33,45.76 0,26.27 -19.5,45.36 -44.33,45.36zm152.68 -117.39c-32.22,0 -52.33,17.24 -52.33,41.87 0,26.88 19.63,36.27 36.12,39.4l29.14 5.54c12.34,2.34 16.01,7.18 16.01,14.98 0,9.85 -8.42,17.44 -24.42,17.44 -15.6,0 -27.09,-6.77 -30.79,-22.36l-29.34 5.95c3.49,27.49 28.73,40.84 57.46,40.84 32.63,0 54.58,-16.63 54.58,-43.31 0,-21.34 -13.73,-34.89 -36.11,-39.4l-29.55 -5.95c-10.63,-2.14 -13.75,-6.98 -13.75,-13.95 0,-9.24 8.41,-17.04 22.37,-17.04 13.75,0 25.03,8.42 27.08,21.35l27.91 -5.75c-5.33,-24.42 -26.47,-39.61 -54.38,-39.61z"/>
   <path class="fil0" d="M98.86 283.76c9.4,-9.78 17.15,-21.18 22.76,-33.74 6.56,-14.66 10.21,-30.97 10.21,-48.18 0,-32.62 -13.22,-62.15 -34.59,-83.53 -19.3,-19.29 -45.2,-31.95 -74.01,-34.25l0 160.34 0.04 0c0,20.87 8.46,39.76 22.13,53.43 13.68,13.67 32.57,22.13 53.44,22.13 4.52,0 8.96,-0.4 13.27,-1.16 -9.17,-5.65 -17.63,-12.34 -25.2,-19.91 -24.84,-24.84 -40.2,-59.15 -40.2,-97.05l19.13 0c0,31.81 12.57,60.68 33.02,81.92zm-21.3 -252.17c11.75,0 21.28,9.52 21.28,21.28 0,-11.76 9.52,-21.28 21.28,-21.28 -11.76,0 -21.28,-9.53 -21.28,-21.28 0,11.75 -9.53,21.28 -21.28,21.28zm61.47 226.21c-6.41,14.32 -15.21,27.36 -25.89,38.59 7.16,5.37 14.95,9.95 23.24,13.6 5.83,-3.34 11.17,-7.44 15.89,-12.16 13.67,-13.67 22.13,-32.56 22.13,-53.43l0.04 0 0 -128.21 -53.48 0c18.77,23.48 30,53.25 30,85.65 0,19.88 -4.26,38.82 -11.93,55.96zm-125.32 -193.18c16.4,0 32.12,2.87 46.69,8.14 5.36,-2.4 10.95,-4.3 16.69,-5.65 7.01,-1.65 14.29,-2.52 21.75,-2.52 14.77,0 28.79,3.41 41.29,9.48 11.57,5.62 21.81,13.5 30.14,23.07l23.22 0 0 147.26 0.04 0c0,26.15 -10.6,49.82 -27.74,66.96 -2.1,2.1 -4.3,4.1 -6.6,6 7.99,1.7 16.28,2.6 24.77,2.6 3.23,0 6.41,-0.12 9.53,-0.36l0 19.15c-3.17,0.23 -6.34,0.34 -9.53,0.34 -16.38,0 -32.1,-2.87 -46.66,-8.14 -11.76,5.23 -24.77,8.14 -38.46,8.14 -26.15,0 -49.82,-10.6 -66.96,-27.73 -17.14,-17.14 -27.74,-40.81 -27.74,-66.96l0.04 0 0 -179.78 9.53 0zm71.82 20.25c5.96,3.66 11.62,7.77 16.92,12.27l39.43 0c-3.18,-2.21 -6.54,-4.18 -10.04,-5.88 -9.95,-4.84 -21.14,-7.55 -33,-7.55 -4.56,0 -9.01,0.4 -13.31,1.16z"/>
  </g>
 </g>
</svg>
